# xmcd CD database file
#
# Track frame offsets:
#	150
#	14643
#	28314
#	42546
#	56369
#	70655
#	83441
#	95831
#	108872
#	121847
#	134990
#	147846
#	160098
#	173122
#	187059
#	199924
#	211932
#	224190
#	237685
#	250690
#	262729
#	275304
#	288773
#
# Disc length: 4025 seconds
#
# Revision: 1
# Processed by: cddbd v1.5.1PL0 Copyright (c) Steve Scherf et al.
# Submitted via: CDex 1.51
#
DISCID=5f0fb717
DTITLE=T-Bone Walker - Stormy Monday Blues - 1947 Recordings
DYEAR=2000
DGENRE=Blues
TTITLE0=Born To Be No Good
TTITLE1=Call It Stormy Monday
TTITLE2=First Love Blues
TTITLE3=Go Back To The One You Love
TTITLE4=Goodbye Blues
TTITLE5=Hypin' Woman Blues
TTITLE6=I Know Your Wig Is Gone
TTITLE7=I Wish You Were Mine
TTITLE8=It's A Low Down Dirty Deal
TTITLE9=Long Lost Lover Blues
TTITLE10=Long Skirt Baby Blues
TTITLE11=Midnight Blues
TTITLE12=On Your Way Blues
TTITLE13=Plain Old Down Home Blues
TTITLE14=Prison Blues
TTITLE15=She's My Old Time Used To Be
TTITLE16=T-Bone Jumps Again
TTITLE17=T-Bone Shuffle
TTITLE18=That Old Feeling Is Gone
TTITLE19=Too Much Trouble Blues
TTITLE20=West Side Baby
TTITLE21=Wise Man Blues
TTITLE22=You're My Best Poker Hand
EXTD=YEAR: 2000
EXTT0=
EXTT1=
EXTT2=
EXTT3=
EXTT4=
EXTT5=
EXTT6=
EXTT7=
EXTT8=
EXTT9=
EXTT10=
EXTT11=
EXTT12=
EXTT13=
EXTT14=
EXTT15=
EXTT16=
EXTT17=
EXTT18=
EXTT19=
EXTT20=
EXTT21=
EXTT22=
PLAYORDER=
